/* XPM */
static char * menu_active_xpm[] = {
"30 25 3 1",
" 	c #282828",
".	c #FFFFFF",
"+	c #009689",
"                              ",
"                              ",
"                              ",
"                              ",
"                              ",
"                              ",
"         ...........          ",
"         ...........          ",
"                              ",
"         ...........          ",
"         ...........          ",
"                              ",
"         ...........          ",
"         ...........          ",
"                              ",
"                              ",
"                              ",
"                              ",
"                              ",
"                              ",
"                              ",
"                              ",
"                              ",
"++++++++++++++++++++++++++++++",
"++++++++++++++++++++++++++++++"};
