/* XPM */
static char * menu_active_xpm[] = {
"30 25 2 1",
" 	c #212121",
".	c #01D4C3",
"                              ",
"                              ",
"                              ",
"                              ",
"                              ",
"                              ",
"         ...........          ",
"         ...........          ",
"                              ",
"         ...........          ",
"         ...........          ",
"                              ",
"         ...........          ",
"         ...........          ",
"                              ",
"                              ",
"                              ",
"                              ",
"                              ",
"                              ",
"                              ",
"                              ",
"                              ",
"                              ",
"                              "};
