/* XPM */
static char * close_pressed_xpm[] = {
"24 26 42 1",
" 	c #272727",
".	c #262626",
"+	c #252525",
"@	c #282828",
"#	c #292929",
"$	c #9A1B18",
"%	c #2A2A2A",
"&	c #9B1C1A",
"*	c #2A2B2A",
"=	c #2B2B2B",
"-	c #2C2C2B",
";	c #2C2C2C",
">	c #2B2C2C",
",	c #9B1E1C",
"'	c #2B2B2C",
")	c #2D2D2D",
"!	c #9B201E",
"~	c #2C2C2D",
"{	c #2E2E2E",
"]	c #9B2220",
"^	c #2F2F2F",
"/	c #303030",
"(	c #9C2522",
"_	c #9C2422",
":	c #313131",
"<	c #323232",
"[	c #9C2725",
"}	c #333333",
"|	c #9D2927",
"1	c #272828",
"2	c #343434",
"3	c #353535",
"4	c #363636",
"5	c #373737",
"6	c #383838",
"7	c #393939",
"8	c #373636",
"9	c #3A3A39",
"0	c #3A3A3A",
"a	c #3A3939",
"b	c #313030",
"c	c #343333",
"       ..++++++..       ",
"      ..++++++++..      ",
"     ..++++++++++..     ",
"    ..++++++++++++..    ",
"    ................    ",
"    ................    ",
"                        ",
"                        ",
"  @@@@@@@@@@@@@@@@@@@@  ",
" @######$######$######@ ",
" @%%%%%%%&%%%%&%%%%%%%@ ",
" @*=-;;>==,;;,'=--->=%@ ",
" #=;)))))))!!)))))))~=# ",
" #;{{{{{{{{]]{{{{{{{{;# ",
" @;^//////(//_//////^;@ ",
" @=^:<<<<[<<<<[<<<<:^=@ ",
" @%{<}}}|}}}}}}|}}}<{%1 ",
"  @;:23333333333332:;@  ",
"  @%{}455555555554}{%@  ",
"   @=^256777777652^=@   ",
"    @=^}86900a64}^=@    ",
"     @%)bc3883}/)%@     ",
"       @%;){{);%@       ",
"         @@@@@@         ",
"                        ",
"                        "};
