/* XPM */
static char * close_prelight_xpm[] = {
"24 26 3 1",
" 	c #272727",
".	c #DF4A16",
"+	c #262626",
"                        ",
"                        ",
"                        ",
"                        ",
"                        ",
"                        ",
"                        ",
"                        ",
"                        ",
"        .+    +.        ",
"        +.+  +.+        ",
"         +.++.+         ",
"          +..+          ",
"          +..+          ",
"         +.++.+         ",
"        +.+  +.+        ",
"        .+    +.        ",
"                        ",
"                        ",
"                        ",
"                        ",
"                        ",
"                        ",
"                        ",
"                        ",
"                        "};
