/* XPM */
static char * hide_pressed_xpm[] = {
"24 26 37 1",
" 	c #272727",
".	c #262626",
"+	c #252525",
"@	c #282828",
"#	c #292929",
"$	c #2A2A2A",
"%	c #2A2B2A",
"&	c #2B2B2B",
"*	c #2C2C2B",
"=	c #2C2C2C",
"-	c #2B2C2C",
";	c #2B2B2C",
">	c #2D2D2D",
",	c #2C2C2D",
"'	c #2E2E2E",
")	c #2F2F2F",
"!	c #303030",
"~	c #9C2423",
"{	c #9C2523",
"]	c #9C2522",
"^	c #9C2422",
"/	c #313131",
"(	c #323232",
"_	c #333333",
":	c #272828",
"<	c #343434",
"[	c #353535",
"}	c #363636",
"|	c #373737",
"1	c #383838",
"2	c #393939",
"3	c #373636",
"4	c #3A3A39",
"5	c #3A3A3A",
"6	c #3A3939",
"7	c #313030",
"8	c #343333",
"       ..++++++..       ",
"      ..++++++++..      ",
"     ..++++++++++..     ",
"    ..++++++++++++..    ",
"    ................    ",
"    ................    ",
"                        ",
"                        ",
"  @@@@@@@@@@@@@@@@@@@@  ",
" @####################@ ",
" @$$$$$$$$$$$$$$$$$$$$@ ",
" @%&*==-&&&==&;&***-&$@ ",
" #&=>>>>>>>>>>>>>>>>,&# ",
" #=''''''''''''''''''=# ",
" @=)!!!!~{]~~^^^!!!!)=@ ",
" @&)/((((((((((((((/)&@ ",
" @$'(______________('$: ",
"  @=/<[[[[[[[[[[[[</=@  ",
"  @$'_}||||||||||}_'$@  ",
"   @&)<|12222221|<)&@   ",
"    @&)_3145561}_)&@    ",
"     @$>78[33[_!>$@     ",
"       @$=>''>=$@       ",
"         @@@@@@         ",
"                        ",
"                        "};
