/* XPM */
static char * maximize_prelight_xpm[] = {
"24 26 2 1",
" 	c #272727",
".	c #DF4A16",
"                        ",
"                        ",
"                        ",
"                        ",
"                        ",
"                        ",
"                        ",
"                        ",
"                        ",
"        ........        ",
"        .      .        ",
"        .      .        ",
"        .      .        ",
"        .      .        ",
"        .      .        ",
"        .      .        ",
"        ........        ",
"                        ",
"                        ",
"                        ",
"                        ",
"                        ",
"                        ",
"                        ",
"                        ",
"                        "};
