/* XPM */
static char * title_1_inactive_xpm[] = {
"2 30 3 1",
" 	c #272727",
".	c #3B3B3B",
"+	c #191919",
"  ",
"..",
"  ",
"  ",
"  ",
"  ",
"  ",
"  ",
"  ",
"  ",
"  ",
"  ",
"  ",
"  ",
"  ",
"  ",
"  ",
"  ",
"  ",
"  ",
"  ",
"  ",
"  ",
"  ",
"  ",
"  ",
"  ",
"  ",
"  ",
"++"};
