/* XPM */
static char * title_3_active_xpm[] = {
"2 30 28 1",
" 	c #272727",
".	c #4A4A4A",
"+	c #303030",
"@	c #2E2E2E",
"#	c #2E2D2E",
"$	c #2D2D2E",
"%	c #2C2C2C",
"&	c #2B2B2B",
"*	c #2B2A2B",
"=	c #2A2A2A",
"-	c #292929",
";	c #292828",
">	c #282829",
",	c #272828",
"'	c #282828",
")	c #262626",
"!	c #252525",
"~	c #242424",
"{	c #232423",
"]	c #232424",
"^	c #232323",
"/	c #222222",
"(	c #212121",
"_	c #212120",
":	c #202121",
"<	c #202020",
"[	c #1F1F1F",
"}	c #000000",
"  ",
"..",
"++",
"@@",
"#$",
"%%",
"%%",
"&*",
"==",
"--",
";>",
",'",
"  ",
"))",
"!!",
"!!",
"~~",
"{]",
"^^",
"//",
"//",
"((",
"((",
"((",
"_:",
"<<",
"<<",
"<<",
"[[",
"}}"};
