/* XPM */
static char * title_3_inactive_xpm[] = {
"2 30 16 1",
" 	c #272727",
".	c #3B3B3B",
"+	c #2D2D2D",
"@	c #2B2B2B",
"#	c #2A2A2A",
"$	c #292929",
"%	c #282828",
"&	c #272828",
"*	c #262626",
"=	c #252525",
"-	c #242424",
";	c #242423",
">	c #232424",
",	c #232323",
"'	c #222222",
")	c #191919",
"  ",
"..",
"++",
"@@",
"@@",
"##",
"##",
"$$",
"$$",
"%%",
"%%",
"&%",
"  ",
"**",
"**",
"**",
"==",
"==",
"==",
"--",
"--",
"--",
"--",
"--",
";>",
",,",
",,",
",,",
"''",
"))"};
