/* XPM */
static char * top_right_inactive_xpm[] = {
"6 30 5 1",
" 	c None",
".	c #262626",
"+	c #3B3B3B",
"@	c #303030",
"#	c #191919",
"..    ",
"++@.  ",
"..@+. ",
"....+ ",
"....@.",
"......",
"......",
"......",
"......",
"......",
"......",
"......",
"......",
"......",
"......",
"......",
"......",
"......",
"......",
"......",
"......",
"......",
"......",
"......",
"......",
"......",
"......",
"......",
"......",
"######"};
