/* XPM */
static char * top_right_active_xpm[] = {
"6 30 8 1",
" 	c None",
".	c #262626",
"+	c #4A4A4A",
"@	c #454545",
"#	c #303030",
"$	c #3F3F3F",
"%	c #383838",
"&	c #000000",
"..    ",
"+@#.  ",
"..#$. ",
"....% ",
"....#.",
"......",
"......",
"......",
"......",
"......",
"......",
"......",
"......",
"......",
"......",
"......",
"......",
"......",
"......",
"......",
"......",
"......",
"......",
"......",
"......",
"......",
"......",
"......",
"......",
"&&&&&&"};
