/* XPM */
static char * close_active_xpm[] = {
"30 25 2 1",
" 	c #009689",
".	c #FFFFFF",
"                              ",
"                              ",
"                              ",
"                              ",
"                              ",
"         ...........          ",
"         ...........          ",
"         ...........          ",
"         ...........          ",
"         ...........          ",
"         ...........          ",
"         ...........          ",
"         ...........          ",
"         ...........          ",
"                              ",
"                              ",
"                              ",
"                              ",
"                              ",
"                              ",
"                              ",
"                              ",
"                              ",
"                              ",
"                              "};
